<svg width="249" height="103" viewBox="0 0 249 103" fill="none" xmlns="http://www.w3.org/2000/svg">
<path d="M26 87C26.66 85.01 28.66 82.01 30.155 80.345C30.8724 79.5461 31.98 79.34 32.985 79.5C37.9221 80.286 42.64 86.64 45.325 90.16C47.8068 93.4135 53.64 85.02 58.315 83.17C59.5664 82.6748 61.3 83 62.645 83.495C65.2419 84.4507 66.66 86.99 68.32 87.995C72.826 90.723 75.98 82.34 79.985 81.5C84.6005 80.532 87.98 86.66 93.48 91.645C98.1149 95.8459 103.98 98.66 111.125 99.83C127.115 102.448 139.9 101 156.75 101.665C175.748 102.415 191.96 100.01 198.785 98.18C206.456 96.1231 210.98 95 220.13 92.345C226.289 90.558 230.98 88.68 235.15 85.68C240.799 81.6161 242.66 76.02 245.655 71.185C249.997 64.1754 245.68 49.04 242.845 44.18C240.464 40.0979 236.02 38.34 232.015 35.845C227.498 33.0309 224.68 29.02 221.015 26.01C217.295 22.9551 213.02 20.68 205.055 17.02C191.856 10.9548 174.74 8.68 162.585 6.68C151.779 4.90191 134.48 3.02 115.22 1.835C112.022 1.63823 110.04 1.34 99.615 1.17C89.19 1 70.38 1 58.38 1.33C41.7368 1.78769 29.41 4.98 17.415 8.475C9.08836 10.9011 6.02001 16.98 3.17501 21.815C0.606957 26.1793 1.00001 48.48 1.99501 60.985C2.1618 63.0813 3.66001 65.32 5.15501 67.65C8.62301 73.055 18.64 73.66 24.645 74.995C27.015 75.5219 28.99 76 30.655 76.495C31.66 77.98 32.33 79.99 33.16 81.985C33.66 82.99 34.32 83.98 36 85" stroke="white" stroke-width="2" stroke-linecap="round"/>
</svg>
